<svg width="354" height="33" viewBox="0 0 354 33" fill="none" xmlns="http://www.w3.org/2000/svg">
<path opacity="0.3" d="M0.251229 29.8817L3.88181 31.7487L5.74877 28.1181L2.11819 26.2511L0.251229 29.8817ZM353.654 30.6361L352.136 26.8462L348.346 28.3639L349.864 32.1538L353.654 30.6361ZM3.15273 29.476C3.92326 29.2288 4.70664 28.9805 5.50268 28.7313L5.20389 27.777C4.40567 28.0269 3.62005 28.2759 2.84727 28.5238L3.15273 29.476ZM10.3738 27.2421C11.9444 26.773 13.5572 26.3015 15.2108 25.8286L14.9359 24.8671C13.2786 25.3411 11.662 25.8136 10.0876 26.2839L10.3738 27.2421ZM20.0621 24.4697C21.669 24.0287 23.31 23.5872 24.9839 23.1459L24.7289 22.1789C23.0518 22.6211 21.4076 23.0634 19.7974 23.5053L20.0621 24.4697ZM29.854 21.8865C31.4634 21.4783 33.1002 21.0708 34.7635 20.6646L34.5263 19.6931C32.8601 20.1 31.2204 20.5082 29.6081 20.9172L29.854 21.8865ZM39.704 19.4808C41.3156 19.1019 42.9499 18.7246 44.6061 18.3495L44.3852 17.3742C42.7263 17.7499 41.0894 18.1278 39.4752 18.5073L39.704 19.4808ZM49.5902 17.2419C51.2053 16.8897 52.8395 16.54 54.4923 16.1929L54.2868 15.2143C52.6315 15.5618 50.9948 15.9122 49.3772 16.2648L49.5902 17.2419ZM59.4838 15.165C61.1102 14.8365 62.7531 14.511 64.4121 14.1887L64.2214 13.2071C62.56 13.5298 60.9146 13.8558 59.2859 14.1847L59.4838 15.165ZM69.4126 13.2367C71.0475 12.9318 72.6968 12.6302 74.3602 12.3324L74.184 11.348C72.5182 11.6463 70.8664 11.9483 69.2292 12.2537L69.4126 13.2367ZM79.3734 11.4536C81.0143 11.1721 82.668 10.8944 84.3338 10.6209L84.1718 9.63407C82.5036 9.908 80.8476 10.1861 79.2043 10.468L79.3734 11.4536ZM89.3623 9.81375C91.0076 9.55574 92.6641 9.30193 94.3312 9.05259L94.1833 8.06359C92.5138 8.31328 90.855 8.56745 89.2074 8.82582L89.3623 9.81375ZM99.3644 8.31829C101.017 8.08325 102.679 7.85277 104.351 7.6271L104.217 6.63609C102.543 6.86208 100.878 7.09289 99.2236 7.32825L99.3644 8.31829ZM109.382 6.96634C111.044 6.75423 112.714 6.54701 114.392 6.34493L114.273 5.3521C112.592 5.55447 110.919 5.76198 109.256 5.97439L109.382 6.96634ZM119.421 5.75793C121.09 5.56915 122.768 5.3856 124.452 5.20751L124.347 4.21305C122.66 4.3914 120.98 4.57521 119.308 4.76426L119.421 5.75793ZM129.479 4.6948C131.156 4.52991 132.84 4.37057 134.53 4.21701L134.44 3.22111C132.747 3.3749 131.06 3.53447 129.381 3.6996L129.479 4.6948ZM139.554 3.77945C141.235 3.63937 142.922 3.50513 144.614 3.37696L144.539 2.37981C142.844 2.50818 141.154 2.64262 139.471 2.78291L139.554 3.77945ZM149.646 3.01507C151.325 2.90069 153.01 2.79243 154.699 2.69047L154.639 1.69228C152.947 1.7944 151.26 1.90283 149.578 2.01738L149.646 3.01507ZM159.75 2.4054C161.429 2.31726 163.112 2.23547 164.799 2.16025L164.754 1.16125C163.064 1.23658 161.379 1.3185 159.698 1.40678L159.75 2.4054ZM169.864 1.95476C171.542 1.89347 173.224 1.83881 174.909 1.79097L174.881 0.791376C173.193 0.839289 171.509 0.894037 169.828 0.955425L169.864 1.95476ZM179.974 1.66813C181.655 1.63435 183.34 1.6075 185.027 1.58778L185.015 0.587846C183.325 0.607603 181.638 0.634497 179.954 0.668337L179.974 1.66813ZM190.085 1.5502C191.77 1.54491 193.458 1.54688 195.148 1.55628L195.153 0.556296C193.461 0.546874 191.77 0.544909 190.082 0.550209L190.085 1.5502ZM200.2 1.60669C201.887 1.63099 203.575 1.66286 205.264 1.70248L205.288 0.702752C203.595 0.663064 201.904 0.631141 200.215 0.606794L200.2 1.60669ZM210.315 1.84403C211.999 1.89899 213.684 1.96181 215.371 2.03266L215.413 1.03354C213.723 0.962554 212.035 0.899624 210.348 0.844566L210.315 1.84403ZM220.424 2.26912C222.106 2.35591 223.789 2.45086 225.472 2.55416L225.533 1.55604C223.847 1.45254 222.161 1.3574 220.476 1.27045L220.424 2.26912ZM230.522 2.88928C232.202 3.0092 233.882 3.13762 235.562 3.27471L235.643 2.27802C233.96 2.14065 232.277 2.01198 230.593 1.89181L230.522 2.88928ZM240.601 3.71215C242.279 3.86668 243.958 4.03007 245.635 4.20247L245.737 3.20771C244.056 3.03494 242.375 2.87122 240.693 2.71636L240.601 3.71215ZM250.662 4.7467C252.337 4.93724 254.011 5.13699 255.684 5.3461L255.808 4.35383C254.131 4.14425 252.454 3.94407 250.775 3.75311L250.662 4.7467ZM260.698 6.00195C262.368 6.23006 264.037 6.46773 265.704 6.71515L265.851 5.72598C264.18 5.478 262.508 5.23978 260.834 5.01115L260.698 6.00195ZM270.702 7.48738C272.366 7.75481 274.029 8.03219 275.689 8.31968L275.86 7.33435C274.196 7.04615 272.529 6.76811 270.86 6.50004L270.702 7.48738ZM280.664 9.21298C282.322 9.52158 283.978 9.84053 285.631 10.17L285.827 9.1893C284.17 8.85898 282.51 8.53922 280.847 8.22985L280.664 9.21298ZM290.581 11.1902C292.231 11.5416 293.877 11.9038 295.52 12.2768L295.742 11.3017C294.094 10.9276 292.443 10.5645 290.789 10.2122L290.581 11.1902ZM300.443 13.4302C302.081 13.8261 303.715 14.233 305.345 14.6514L305.594 13.6827C303.959 13.2632 302.32 12.8551 300.677 12.4582L300.443 13.4302ZM310.236 15.9441C311.862 16.3865 313.483 16.8406 315.1 17.3063L315.377 16.3454C313.755 15.8783 312.129 15.4229 310.499 14.9792L310.236 15.9441ZM319.949 18.7435C321.562 19.2349 323.17 19.7384 324.772 20.2541L325.079 19.3022C323.471 18.7848 321.859 18.2798 320.241 17.7869L319.949 18.7435ZM329.569 21.8402C331.167 22.3827 332.759 22.9377 334.344 23.5054L334.681 22.564C333.09 21.9944 331.493 21.4376 329.891 20.8933L329.569 21.8402ZM339.083 25.2469C340.662 25.8423 342.235 26.4507 343.8 27.0722L344.169 26.1427C342.598 25.519 341.02 24.9086 339.436 24.3112L339.083 25.2469ZM348.479 28.9771C349.256 29.3013 350.03 29.6288 350.803 29.9597L351.197 29.0404C350.421 28.7083 349.644 28.3796 348.865 28.0543L348.479 28.9771Z" fill="white"/>
</svg>
