<svg width="373" height="35" viewBox="0 0 373 35" fill="none" xmlns="http://www.w3.org/2000/svg">
<path opacity="0.3" d="M0.251229 8.61826L3.88181 6.7513L5.74877 10.3819L2.11819 12.2488L0.251229 8.61826ZM372.654 2.36385L371.136 6.15373L367.346 4.636L368.864 0.846123L372.654 2.36385ZM3.15273 9.02397C3.91412 9.26823 4.69061 9.51284 5.48196 9.75769L5.18637 10.713C4.39183 10.4672 3.61204 10.2215 2.84727 9.97618L3.15273 9.02397ZM10.3482 11.212C11.907 11.6625 13.514 12.1129 15.1676 12.5626L14.9052 13.5276C13.2467 13.0765 11.6347 12.6247 10.0706 12.1727L10.3482 11.212ZM20.0191 13.8453C21.6283 14.2591 23.276 14.6717 24.9609 15.0825L24.724 16.0541C23.0352 15.6423 21.3835 15.2287 19.77 14.8138L20.0191 13.8453ZM29.8064 16.235C31.421 16.6096 33.066 16.9823 34.7404 17.3526L34.5245 18.329C32.8468 17.958 31.1984 17.5846 29.5803 17.2091L29.8064 16.235ZM39.6546 18.4141C41.2739 18.7559 42.9182 19.0951 44.5865 19.4314L44.3889 20.4117C42.7176 20.0748 41.0704 19.7349 39.4481 19.3926L39.6546 18.4141ZM49.5388 20.4076C51.1643 20.7208 52.8108 21.0311 54.4774 21.3382L54.2962 22.3216C52.6269 22.014 50.9778 21.7032 49.3496 21.3895L49.5388 20.4076ZM59.4489 22.2338C61.0823 22.5215 62.7337 22.806 64.4022 23.0869L64.2362 24.073C62.5652 23.7917 60.9113 23.5068 59.2754 23.2187L59.4489 22.2338ZM69.3812 23.9064C71.024 24.1706 72.6823 24.4313 74.3556 24.6882L74.2038 25.6766C72.5282 25.4193 70.8675 25.1583 69.2224 24.8937L69.3812 23.9064ZM79.335 25.435C80.988 25.677 82.6545 25.9153 84.3342 26.1495L84.1961 27.1399C82.5142 26.9054 80.8453 26.6668 79.1901 26.4244L79.335 25.435ZM89.3103 26.8264C90.9737 27.0471 92.6491 27.2637 94.336 27.4761L94.2111 28.4683C92.522 28.2556 90.8444 28.0387 89.1788 27.8178L89.3103 26.8264ZM99.307 28.0855C100.975 28.2845 102.653 28.4792 104.341 28.6695L104.229 29.6632C102.539 29.4726 100.858 29.2777 99.1885 29.0785L99.307 28.0855ZM109.325 29.215C110.989 29.3919 112.663 29.5644 114.345 29.7322L114.246 30.7273C112.561 30.5592 110.885 30.3865 109.219 30.2095L109.325 29.215ZM119.361 30.2167C121.023 30.3718 122.693 30.5224 124.37 30.6683L124.283 31.6645C122.604 31.5184 120.932 31.3677 119.268 31.2123L119.361 30.2167ZM129.415 31.0908C131.075 31.2245 132.741 31.3534 134.414 31.4775L134.34 32.4748C132.665 32.3505 130.996 32.2214 129.335 32.0876L129.415 31.0908ZM139.453 31.8351C141.121 31.9481 142.795 32.0562 144.475 32.1593L144.414 33.1574C142.732 33.0542 141.055 32.946 139.385 32.8328L139.453 31.8351ZM149.501 32.4513C151.178 32.5434 152.861 32.6303 154.549 32.7119L154.5 33.7107C152.81 33.629 151.126 33.542 149.446 33.4498L149.501 32.4513ZM159.565 32.9382C161.242 33.0083 162.923 33.0732 164.608 33.1326L164.573 34.1319C162.885 34.0725 161.202 34.0075 159.523 33.9373L159.565 32.9382ZM169.641 33.2932C171.315 33.3411 172.993 33.3834 174.674 33.4202L174.652 34.42C172.968 34.3831 171.289 34.3407 169.613 34.2928L169.641 33.2932ZM179.725 33.5135C181.397 33.5386 183.072 33.5581 184.749 33.5719L184.741 34.5718C183.061 34.5581 181.384 34.5385 179.71 34.5133L179.725 33.5135ZM189.791 33.5955C191.468 33.5975 193.148 33.5937 194.831 33.5838L194.836 34.5837C193.152 34.5937 191.47 34.5975 189.79 34.5955L189.791 33.5955ZM199.864 33.5361C201.543 33.5142 203.225 33.4861 204.908 33.4518L204.928 34.4516C203.243 34.486 201.559 34.5141 199.877 34.536L199.864 33.5361ZM209.939 33.3307C211.616 33.284 213.295 33.2311 214.974 33.1717L215.01 34.1711C213.328 34.2305 211.647 34.2836 209.967 34.3303L209.939 33.3307ZM220.011 32.9742C221.687 32.902 223.363 32.8233 225.04 32.7379L225.091 33.7366C223.412 33.8221 221.733 33.901 220.054 33.9733L220.011 32.9742ZM230.071 32.4615C231.747 32.3627 233.423 32.2571 235.099 32.1445L235.166 33.1423C233.487 33.255 231.809 33.3608 230.13 33.4598L230.071 32.4615ZM240.123 31.7862C241.797 31.6597 243.471 31.5262 245.143 31.3855L245.227 32.382C243.551 32.5229 241.875 32.6567 240.198 32.7833L240.123 31.7862ZM250.163 30.9414C251.835 30.786 253.505 30.6234 255.175 30.4533L255.276 31.4481C253.604 31.6185 251.93 31.7815 250.255 31.9371L250.163 30.9414ZM260.183 29.92C261.853 29.7343 263.522 29.541 265.188 29.34L265.308 30.3328C263.639 30.5342 261.967 30.7278 260.293 30.9138L260.183 29.92ZM270.182 28.7135C271.849 28.4961 273.514 28.2708 275.176 28.0374L275.315 29.0277C273.65 29.2616 271.981 29.4873 270.311 29.7051L270.182 28.7135ZM280.16 27.3121C281.82 27.0619 283.477 26.8035 285.13 26.5367L285.289 27.524C283.633 27.7913 281.973 28.0502 280.309 28.3009L280.16 27.3121ZM290.105 25.7068C291.76 25.4216 293.411 25.1278 295.059 24.8252L295.239 25.8088C293.588 26.112 291.934 26.4064 290.275 26.6922L290.105 25.7068ZM300.008 23.8875C301.659 23.5649 303.306 23.2333 304.948 22.8926L305.151 23.8717C303.505 24.2133 301.854 24.5456 300.199 24.8689L300.008 23.8875ZM309.859 21.8429C311.506 21.4807 313.147 21.1091 314.783 20.7278L315.01 21.7018C313.37 22.0839 311.724 22.4565 310.074 22.8196L309.859 21.8429ZM319.675 19.555C321.307 19.1527 322.933 18.7406 324.553 18.3185L324.805 19.2862C323.181 19.7094 321.551 20.1226 319.914 20.5259L319.675 19.555ZM329.423 17.0145C331.04 16.5697 332.65 16.1147 334.254 15.6493L334.532 16.6097C332.924 17.0764 331.31 17.5327 329.688 17.9787L329.423 17.0145ZM339.091 14.2073C340.698 13.7154 342.298 13.2128 343.889 12.6993L344.196 13.651C342.6 14.1661 340.995 14.6702 339.384 15.1635L339.091 14.2073ZM348.665 11.1182C350.26 10.5762 351.846 10.0229 353.425 9.45808L353.761 10.3996C352.178 10.9662 350.586 11.5213 348.986 12.065L348.665 11.1182ZM358.133 7.72921C359.712 7.13441 361.282 6.5277 362.842 5.90894L363.211 6.83852C361.645 7.45943 360.07 8.06821 358.485 8.66502L358.133 7.72921ZM367.498 4.01477C368.269 3.693 369.037 3.36818 369.803 3.04027L370.197 3.95958C369.428 4.28868 368.657 4.61469 367.883 4.93762L367.498 4.01477Z" fill="white"/>
</svg>
