<svg width="117" height="131" viewBox="0 0 117 131" fill="none" xmlns="http://www.w3.org/2000/svg">
<path opacity="0.2" d="M2.99434 78.8296L69.2455 10.19C74.438 4.81033 83.5458 7.741 84.6266 15.1393L96.4685 96.195C97.3462 102.202 92.1458 107.338 86.1499 106.384L8.0568 93.9682C0.868763 92.8254 -2.06029 84.0664 2.99434 78.8296Z" fill="white"/>
<path d="M40.0183 65.0148C41.0332 63.9999 42.2511 63.391 43.672 63.0865L48.9495 62.1731C50.1674 63.2895 51.7912 63.7969 53.3136 63.7969C54.8359 63.7969 56.4598 63.2895 57.6777 62.1731L62.9552 63.0865C64.376 63.2895 65.5939 63.9999 66.6088 65.0148C66.8118 65.2178 67.6237 65.5223 68.0297 65.0148C68.4357 64.6088 68.4357 63.9999 68.0297 63.5939C66.7103 62.2746 65.0865 61.4626 63.2596 61.1582L58.3881 60.3462V56.5911C60.8239 54.9672 62.4477 52.1255 62.4477 48.9793C62.4477 48.3704 62.0418 47.9644 61.4328 47.9644C60.8239 47.9644 60.4179 48.3704 60.4179 48.9793C60.4179 52.9374 57.2717 56.0836 53.3136 56.0836C49.3554 56.0836 46.2092 52.9374 46.2092 48.9793C46.2092 48.3704 45.8033 47.9644 45.1943 47.9644C44.5854 47.9644 44.1794 48.3704 44.1794 48.9793C44.1794 52.1255 45.8033 54.9672 48.239 56.5911V60.3462L43.3675 61.1582C41.5407 61.4626 39.9168 62.2746 38.5974 63.5939C38.1915 63.9999 38.1915 64.6088 38.5974 65.0148C39.2064 65.6238 39.8153 65.2178 40.0183 65.0148ZM50.2689 57.606C51.1823 57.9105 52.1972 58.1135 53.3136 58.1135C54.43 58.1135 55.4449 57.9105 56.3583 57.606V60.7522C54.6329 62.2746 51.9942 62.2746 50.2689 60.7522V57.606Z" fill="white"/>
<path d="M63.5644 90.5903H36.0611V84.7039C36.0611 84.0949 35.6551 83.689 35.0462 83.689C34.4372 83.689 34.0312 84.0949 34.0312 84.7039V91.6052C34.0312 92.2142 34.4372 92.6201 35.0462 92.6201H63.5656C64.1745 92.6201 64.5805 92.2142 64.5805 91.6052C64.5805 90.9963 64.073 90.5903 63.5656 90.5903H63.5644Z" fill="#CE5BEB"/>
<path d="M71.5816 83.689C70.9726 83.689 70.5667 84.0949 70.5667 84.7039V90.5903H67.8264C67.2175 90.5903 66.8115 90.9963 66.8115 91.6052C66.8115 92.2142 67.2175 92.6201 67.8264 92.6201H71.5816C72.1905 92.6201 72.5965 92.2142 72.5965 91.6052V84.7039C72.5965 84.1964 72.1905 83.689 71.5816 83.689Z" fill="#CE5BEB"/>
<path d="M35.0452 73.2348C35.6541 73.2348 36.0601 72.8288 36.0601 72.2199V68.2617H50.2688V73.3363C50.2688 73.7422 50.4717 74.1482 50.8777 74.2497C51.2837 74.4527 51.6896 74.3512 51.9941 74.0467L53.3135 72.7273L54.6329 74.0467C54.9373 74.5542 55.6478 74.3512 55.7492 74.2497C56.1552 74.0467 56.3582 73.7422 56.3582 73.3363V68.2617H70.5669V72.2199C70.5669 72.8288 70.9728 73.2348 71.5818 73.2348C72.1907 73.2348 72.5967 72.8288 72.5967 72.2199V67.2468C72.5967 66.6379 72.1907 66.2319 71.5818 66.2319H35.0452C34.4362 66.2319 34.0303 66.6379 34.0303 67.2468V72.2199C34.0303 72.7273 34.4362 73.2348 35.0452 73.2348ZM52.2986 68.2617H54.3284V70.9005C54.3284 70.9005 53.8209 70.2916 53.3135 70.2916C52.603 70.2916 52.2986 70.9005 52.2986 70.9005V68.2617Z" fill="#CE5BEB"/>
<path d="M39.1047 86.5308C38.4958 86.5308 38.0898 86.9367 38.0898 87.5457C38.0898 88.1546 38.4958 88.5606 39.1047 88.5606H41.1346C41.7435 88.5606 42.1495 88.1546 42.1495 87.5457C42.1495 86.9367 41.7435 86.5308 41.1346 86.5308H39.1047Z" fill="#CE5BEB"/>
<path d="M44.1793 83.4861C44.1793 82.8772 43.7733 82.4712 43.1644 82.4712H39.1047C38.4958 82.4712 38.0898 82.8772 38.0898 83.4861C38.0898 84.095 38.4958 84.501 39.1047 84.501H43.1644C43.7733 84.501 44.1793 84.095 44.1793 83.4861Z" fill="#CE5BEB"/>
<path d="M38.0894 79.4266V77.3968C38.0894 75.6714 36.7701 74.3521 35.0447 74.3521C33.3194 74.3521 32 75.6714 32 77.3968V79.4266C32 81.1519 33.3194 82.4713 35.0447 82.4713C36.7701 82.4713 38.0894 81.1519 38.0894 79.4266ZM34.0298 79.4266V77.3968C34.0298 76.7878 34.4358 76.3819 35.0447 76.3819C35.6537 76.3819 36.0596 76.7878 36.0596 77.3968V79.4266C36.0596 80.0355 35.6537 80.4415 35.0447 80.4415C34.4358 80.4415 34.0298 80.0355 34.0298 79.4266Z" fill="white"/>
<path d="M71.5808 74.3521C69.8555 74.3521 68.5361 75.6714 68.5361 77.3968V79.4266C68.5361 81.1519 69.8555 82.4713 71.5808 82.4713C73.3062 82.4713 74.6256 81.1519 74.6256 79.4266V77.3968C74.6256 75.6714 73.3062 74.3521 71.5808 74.3521ZM72.5958 79.4266C72.5958 80.0355 72.1898 80.4415 71.5808 80.4415C70.9719 80.4415 70.5659 80.0355 70.5659 79.4266V77.3968C70.5659 76.7878 70.9719 76.3819 71.5808 76.3819C72.1898 76.3819 72.5958 76.7878 72.5958 77.3968V79.4266Z" fill="white"/>
<path d="M45.5998 46.8474C46.8177 48.2683 48.4416 47.9638 48.746 47.8623C51.6893 46.8474 54.8355 46.8474 57.7787 47.8623C58.8951 48.2683 60.2145 47.8623 60.9249 46.8474C60.9249 46.8474 63.3607 43.2953 63.3607 43.1938V40.1491C63.3607 37.9163 62.6502 35.6835 61.2294 33.9581C60.9249 33.5522 60.2145 33.4507 59.8085 33.7551C59.4025 34.0596 59.4025 34.7701 59.707 35.176C60.8234 36.5969 61.4324 38.3222 61.4324 40.1491V41.4684C56.3578 38.8297 50.2684 38.8297 45.1939 41.4684V40.1491C45.1939 35.6835 48.8475 32.0298 53.3131 32.0298C54.6325 32.0298 55.7489 32.3343 56.9668 32.8417C57.4742 33.0447 58.0832 32.8417 58.2862 32.3343C58.4891 31.8268 58.2862 31.2179 57.7787 31.0149C56.3578 30.3045 54.8355 30 53.3131 30C47.7311 30 43.1641 34.5671 43.1641 40.1491V43.1938C43.1641 43.2953 45.5998 46.8474 45.5998 46.8474ZM60.9243 43.4982L59.402 45.6295C59.199 45.934 58.793 46.0355 58.4886 45.934C55.1394 44.8176 51.4857 44.8176 48.1365 45.934C47.832 46.0355 47.4261 45.934 47.2231 45.6295L45.5993 43.4982C50.3693 40.758 56.2558 40.758 60.9237 43.4982H60.9243Z" fill="white"/>
<path d="M51.2835 35.7856C50.6745 35.7856 50.2686 36.1916 50.2686 36.8005C50.2686 37.4095 50.6745 37.8155 51.2835 37.8155H55.3431C55.952 37.8155 56.358 37.4095 56.358 36.8005C56.358 36.1916 55.952 35.7856 55.3431 35.7856H51.2835Z" fill="white"/>
<path d="M101.3 29L105.8 33.5M115.7 29.3L111.2 33.8M115.4 43.8L110.9 39.3M101 43.4L105.5 39" stroke="#CE5BEB" stroke-width="2.9"/>
</svg>
