<svg width="147" height="109" viewBox="0 0 147 109" fill="none" xmlns="http://www.w3.org/2000/svg">
<path opacity="0.2" d="M126.449 90.6146L32.2687 105.804C24.8873 106.995 19.3571 99.1872 22.9294 92.619L62.0674 20.6574C64.9681 15.324 72.2093 14.3338 76.4353 18.6927L131.477 75.4647C136.544 80.6902 133.634 89.4557 126.449 90.6146Z" fill="white"/>
<path d="M91.1445 74.3917V57.835C91.1388 53.946 89.7639 50.1833 87.2612 47.2062C84.7588 44.2296 81.2882 42.2285 77.4578 41.5542V37.461C77.4578 35.8674 76.6074 34.3948 75.2272 33.5978C73.847 32.8007 72.1462 32.8007 70.766 33.5978C69.3859 34.3948 68.5355 35.8674 68.5355 37.461V41.5542C64.7039 42.2289 61.2319 44.2311 58.7292 47.2099C56.2263 50.1886 54.8524 53.9536 54.8487 57.844V74.4006C53.5668 74.7205 52.5246 75.6514 52.0626 76.8895C51.6006 78.1275 51.778 79.5134 52.5369 80.595C53.2961 81.6766 54.5391 82.3151 55.8605 82.3016H65.813C66.1054 84.6578 67.5348 86.7208 69.6385 87.8226C71.7417 88.9239 74.2515 88.9239 76.3548 87.8226C78.4585 86.7209 79.8878 84.6579 80.1803 82.3016H90.1328C91.4542 82.3151 92.6972 81.6766 93.4564 80.595C94.2153 79.5134 94.3926 78.1275 93.9307 76.8895C93.4687 75.6515 92.4265 74.7205 91.1445 74.4006L91.1445 74.3917ZM70.3756 37.4614C70.3756 36.5252 70.8754 35.6595 71.6864 35.1914C72.4974 34.7229 73.4969 34.7229 74.3079 35.1914C75.1189 35.6595 75.6187 36.5252 75.6187 37.4614V41.3337C75.2782 41.3337 74.9378 41.2877 74.5884 41.2877L71.406 41.2881C71.0566 41.2881 70.7162 41.2881 70.3758 41.3341L70.3756 37.4614ZM56.6888 57.8445C56.6888 53.941 58.2393 50.1977 60.9992 47.4379C63.759 44.678 67.5023 43.1275 71.4058 43.1275H74.5882C78.4916 43.1275 82.2349 44.678 84.9948 47.4379C87.7546 50.1977 89.3052 53.941 89.3052 57.8445V74.254H56.6891L56.6888 57.8445ZM72.9974 86.7908C71.7223 86.7875 70.4893 86.3346 69.5152 85.5121C68.5408 84.6892 67.8882 83.5493 67.6715 82.2928H78.3234C78.1066 83.5493 77.4541 84.6892 76.4797 85.5121C75.5057 86.3346 74.2726 86.7875 72.9976 86.7908H72.9974ZM90.1332 80.4531H55.8615C55.0825 80.4531 54.3631 80.0376 53.9734 79.3633C53.5841 78.6887 53.5841 77.8576 53.9734 77.1833C54.3631 76.5086 55.0825 76.0931 55.8615 76.0931H90.1332C90.9122 76.0931 91.6316 76.5087 92.0213 77.1833C92.4106 77.8576 92.4106 78.6887 92.0213 79.3633C91.6316 80.0376 90.9122 80.4531 90.1332 80.4531ZM86.546 57.8446C86.546 58.3526 86.1341 58.7644 85.6261 58.7644C85.1182 58.7644 84.7063 58.3526 84.7063 57.8446C84.7067 55.8531 84.1199 53.9062 83.0186 52.2469C81.9172 50.588 80.3511 49.2908 78.516 48.5175C78.0491 48.3191 77.8307 47.78 78.0286 47.3127C78.2269 46.8454 78.7661 46.6273 79.2334 46.8253C81.4011 47.7389 83.2511 49.2718 84.5519 51.2318C85.8524 53.1921 86.5464 55.492 86.546 57.8445L86.546 57.8446Z" fill="white"/>
<path d="M48.7836 66.4487C48.7007 66.5317 48.6018 66.5976 48.4929 66.6426C48.3839 66.6876 48.267 66.7108 48.1489 66.7108C48.0308 66.7108 47.9138 66.6876 47.8049 66.6426C47.6959 66.5976 47.5971 66.5317 47.5141 66.4487C46.8033 65.7474 46.2394 64.9146 45.8547 63.998C45.47 63.0815 45.272 62.0991 45.272 61.1069C45.272 60.1148 45.47 59.1324 45.8547 58.2158C46.2394 57.2993 46.8033 56.4665 47.5141 55.7651C47.5978 55.6825 47.697 55.617 47.8063 55.5723C47.9156 55.5276 48.0327 55.5045 48.151 55.5045C48.2693 55.5045 48.3864 55.5274 48.4957 55.5721C48.605 55.6167 48.7043 55.6822 48.788 55.7647C48.8717 55.8473 48.9381 55.9453 48.9834 56.0531C49.0287 56.161 49.052 56.2766 49.052 56.3934C49.0521 56.5102 49.0288 56.6258 48.9836 56.7337C48.9384 56.8416 48.872 56.9396 48.7884 57.0222C48.2446 57.5583 47.8131 58.195 47.5187 58.8958C47.2244 59.5966 47.0728 60.3479 47.0728 61.1065C47.0728 61.8652 47.2244 62.6165 47.5187 63.3173C47.8131 64.0181 48.2446 64.6548 48.7884 65.1909C48.9553 65.359 49.0484 65.5853 49.0475 65.8208C49.0466 66.0562 48.9518 66.2818 48.7836 66.4487ZM45.5983 68.3336C45.7672 68.4997 45.8623 68.7253 45.8626 68.9607C45.863 69.1961 45.7687 69.422 45.6003 69.5887C45.432 69.7554 45.2034 69.8492 44.965 69.8496C44.7266 69.85 44.4977 69.7568 44.3289 69.5907C43.1988 68.4775 42.3021 67.1553 41.6902 65.6998C41.0782 64.2442 40.763 62.6838 40.7626 61.1079C40.7621 59.532 41.0764 57.9715 41.6876 56.5156C42.2987 55.0597 43.1946 53.737 44.324 52.6232C44.4071 52.5378 44.5065 52.4696 44.6166 52.4227C44.7266 52.3757 44.8451 52.3509 44.965 52.3497C45.0849 52.3484 45.2038 52.3709 45.3149 52.4156C45.4259 52.4603 45.5267 52.5265 45.6115 52.6102C45.6963 52.6939 45.7633 52.7934 45.8086 52.903C45.854 53.0126 45.8767 53.13 45.8754 53.2484C45.8742 53.3667 45.8491 53.4837 45.8015 53.5923C45.7539 53.7009 45.6848 53.7991 45.5983 53.8811C44.6364 54.8297 43.8733 55.9562 43.3527 57.1961C42.832 58.4361 42.564 59.7651 42.564 61.1073C42.564 62.4496 42.832 63.7786 43.3527 65.0185C43.8733 66.2585 44.6364 67.3849 45.5983 68.3336Z" fill="#CE5BEB"/>
<path d="M96.2943 66.4487C96.3772 66.5317 96.4761 66.5976 96.585 66.6426C96.694 66.6876 96.8109 66.7108 96.929 66.7108C97.0471 66.7108 97.164 66.6876 97.273 66.6426C97.382 66.5976 97.4808 66.5317 97.5637 66.4487C98.2746 65.7474 98.8385 64.9146 99.2232 63.998C99.6079 63.0815 99.8059 62.0991 99.8059 61.1069C99.8059 60.1148 99.6079 59.1324 99.2232 58.2158C98.8385 57.2993 98.2746 56.4665 97.5637 55.7651C97.4801 55.6825 97.3808 55.617 97.2716 55.5723C97.1623 55.5276 97.0452 55.5045 96.9269 55.5045C96.8086 55.5045 96.6915 55.5274 96.5822 55.5721C96.4729 55.6167 96.3735 55.6822 96.2899 55.7647C96.2062 55.8473 96.1398 55.9453 96.0945 56.0531C96.0492 56.161 96.0259 56.2766 96.0258 56.3934C96.0258 56.5102 96.0491 56.6258 96.0943 56.7337C96.1395 56.8416 96.2058 56.9396 96.2895 57.0222C96.8333 57.5583 97.2648 58.195 97.5592 58.8958C97.8535 59.5966 98.0051 60.3479 98.0051 61.1065C98.0051 61.8652 97.8535 62.6165 97.5592 63.3173C97.2648 64.0181 96.8333 64.6548 96.2895 65.1909C96.1225 65.359 96.0294 65.5853 96.0303 65.8208C96.0312 66.0562 96.1261 66.2818 96.2943 66.4487ZM99.4796 68.3336C99.3107 68.4997 99.2156 68.7253 99.2152 68.9607C99.2149 69.1961 99.3092 69.422 99.4776 69.5887C99.6459 69.7554 99.8744 69.8492 100.113 69.8496C100.351 69.85 100.58 69.7568 100.749 69.5907C101.879 68.4775 102.776 67.1553 103.388 65.6998C104 64.2442 104.315 62.6838 104.315 61.1079C104.316 59.532 104.001 57.9715 103.39 56.5156C102.779 55.0597 101.883 53.737 100.754 52.6232C100.671 52.5378 100.571 52.4696 100.461 52.4227C100.351 52.3757 100.233 52.3509 100.113 52.3497C99.993 52.3484 99.874 52.3709 99.763 52.4156C99.652 52.4603 99.5512 52.5265 99.4664 52.6102C99.3816 52.6939 99.3146 52.7934 99.2692 52.903C99.2239 53.0126 99.2012 53.13 99.2024 53.2484C99.2037 53.3667 99.2288 53.4837 99.2764 53.5923C99.324 53.7009 99.3931 53.7991 99.4796 53.8811C100.441 54.8297 101.205 55.9562 101.725 57.1961C102.246 58.4361 102.514 59.7651 102.514 61.1073C102.514 62.4496 102.246 63.7786 101.725 65.0185C101.205 66.2585 100.441 67.3849 99.4796 68.3336Z" fill="#CE5BEB"/>
<path fill-rule="evenodd" clip-rule="evenodd" d="M136.7 41L146.4 50.7L136.7 60.4L127 50.7L136.7 41ZM143.6 50.7L136.7 43.8L129.9 50.7L136.7 57.5L143.6 50.7Z" fill="#CE5BEB"/>
</svg>
