<svg width="103" height="131" viewBox="0 0 103 131" fill="none" xmlns="http://www.w3.org/2000/svg">
<path d="M76.9166 49.1667H26.0833V87.2917H45.1458L51.4999 93.6458L57.8541 87.2917H76.9166V49.1667Z" stroke="white" stroke-width="3" stroke-linecap="round" stroke-linejoin="round"/>
<path d="M51.4999 69.5C55.0092 69.5 57.8541 66.6551 57.8541 63.1458C57.8541 59.6365 55.0092 56.7917 51.4999 56.7917C47.9906 56.7917 45.1458 59.6365 45.1458 63.1458C45.1458 66.6551 47.9906 69.5 51.4999 69.5Z" fill="#CE5BEB" stroke="white" stroke-width="3" stroke-linecap="round" stroke-linejoin="round"/>
<path d="M62.9375 79.6667C62.9375 74.0517 57.8168 69.5 51.5 69.5C45.1832 69.5 40.0625 74.0517 40.0625 79.6667" stroke="white" stroke-width="3" stroke-linecap="round" stroke-linejoin="round"/>
<path opacity="0.2" d="M14 113.729V18.3318C14 10.855 22.5885 6.63852 28.5041 11.211L93.3159 61.3079C98.1194 65.0208 97.944 72.3272 92.9678 75.8053L28.156 121.106C22.1904 125.275 14 121.007 14 113.729Z" fill="white"/>
<path d="M9.62499 35.225C10.725 40.525 15.725 42.825 17.525 43.525C17.725 43.625 17.725 43.925 17.525 43.925C15.725 44.625 10.725 46.925 9.62499 52.325C9.52499 52.525 9.22499 52.525 9.12499 52.325C8.02499 46.925 3.025 44.625 1.225 43.925C0.925 43.925 0.925 43.625 1.225 43.525C3.025 42.825 8.02499 40.525 9.12499 35.225C9.22499 34.925 9.52499 34.925 9.62499 35.225V35.225Z" stroke="#CE5BEB" stroke-width="2"/>
</svg>
